<?xml version="1.0" encoding="utf-8"?>
<!-- Generator: Adobe Illustrator 23.0.3, SVG Export Plug-In . SVG Version: 6.00 Build 0)  -->
<svg version="1.1" id="Layer_1" xmlns="http://www.w3.org/2000/svg" xmlns:xlink="http://www.w3.org/1999/xlink" x="0px" y="0px"
	 viewBox="0 0 216.76 215" enable-background="new 0 0 216.76 215" xml:space="preserve">
<linearGradient id="SVGID_1_" gradientUnits="userSpaceOnUse" x1="0.5026" y1="107.5" x2="216.2582" y2="107.5">
	<stop  offset="0" style="stop-color:#02B3E4"/>
	<stop  offset="1" style="stop-color:#FFFFFF"/>
</linearGradient>
<path fill="url(#SVGID_1_)" stroke="#02B3E4" stroke-miterlimit="10" d="M71.5,123.13c0,11.81,9.6,21.39,21.45,21.39h59.55v7.94
	H63.6L63.5,0.5h-63l1,192.33c0,11.97,9.7,21.67,21.67,21.67h40.23h0.19h124.88c14.92,0,27.02-12.1,27.02-27.02v-34.93v-0.08V96.4
	c0-13.08-12.89-23.9-26-23.9h-27h-9h-9l-0.3-7.67h71.4h0.65V1.44h-0.65h-71.4h-0.65H97.06h-0.65c-13.76,0-24.91,11.39-24.91,25.43
	V123.13z"/>
</svg>
